<svg width="35" height="20" viewBox="0 0 35 20" fill="none" xmlns="http://www.w3.org/2000/svg">
<path d="M20.7758 10.0525C20.7758 15.5286 16.2791 19.9995 10.6516 19.9995C5.07786 19.9995 0.527344 15.5286 0.527344 10.0525C0.527344 4.57633 5.02401 0.105469 10.5977 0.105469C16.2791 0.105469 20.7758 4.57633 20.7758 10.0525Z" fill="#EA192A"/>
<path d="M34.4265 9.99991C34.4265 15.5025 29.9029 19.9998 24.2484 19.9998C18.6478 19.9998 14.0703 15.5025 14.0703 9.99991C14.0703 4.49731 18.5939 2.01834e-07 24.1945 2.01834e-07C29.9029 2.01834e-07 34.4265 4.49731 34.4265 9.99991Z" fill="#F9B532"/>
<path d="M20.8014 10.0525C20.8014 9.31174 20.6937 8.62391 20.586 7.93609H14.3392C14.393 7.56572 14.5007 7.24826 14.6084 6.87789H20.2091C20.1014 6.50753 19.9398 6.13716 19.7782 5.8197H15.0392C15.2008 5.44934 15.4162 5.13188 15.6316 4.76151H19.2397C19.0243 4.39114 18.7551 4.02078 18.4319 3.70332H16.4394C16.7625 3.33295 17.0856 3.0155 17.4626 2.69804C15.7326 1.10414 13.39 0.158378 10.832 0.105469V19.9929C13.4102 19.9532 15.7191 18.9611 17.5165 17.4003C17.8934 17.0828 18.2165 16.7125 18.5396 16.3421H16.4394C16.1701 16.0246 15.9009 15.6543 15.6855 15.3368H19.2936C19.509 15.0194 19.7244 14.649 19.886 14.2786H15.0931C14.9315 13.9612 14.77 13.5908 14.6623 13.2204H20.2629C20.586 12.2218 20.8014 11.1636 20.8014 10.0525Z" fill="#EA192A"/>
<path d="M14.2883 12.5408L14.4498 11.6413C14.396 11.6413 14.2883 11.6943 14.1806 11.6943C13.8036 11.6943 13.7498 11.4826 13.8036 11.3768L14.1267 9.52496H14.7191L14.8807 8.51968H14.3421L14.4498 7.88477H13.3728C13.3728 7.88477 12.7266 11.3768 12.7266 11.8001C12.7266 12.435 13.1035 12.6995 13.5882 12.6995C13.9113 12.6995 14.1806 12.5937 14.2883 12.5408Z" fill="white"/>
<path d="M14.6641 10.8466C14.6641 12.3281 15.6873 12.6984 16.5489 12.6984C17.3567 12.6984 17.6798 12.5397 17.6798 12.5397L17.8952 11.5344C17.8952 11.5344 17.3028 11.799 16.7643 11.799C15.5796 11.799 15.795 10.9524 15.795 10.9524H18.0029C18.0029 10.9524 18.1645 10.2646 18.1645 10.0001C18.1645 9.31223 17.7875 8.46568 16.6027 8.46568C15.4718 8.35986 14.6641 9.52387 14.6641 10.8466ZM16.5489 9.31223C17.1413 9.31223 17.0336 10.0001 17.0336 10.053H15.8488C15.8488 10.0001 15.9565 9.31223 16.5489 9.31223Z" fill="white"/>
<path d="M23.3877 12.5404L23.6031 11.3764C23.6031 11.3764 23.0645 11.641 22.6876 11.641C21.9336 11.641 21.6105 11.059 21.6105 10.424C21.6105 9.15422 22.2568 8.46639 23.0107 8.46639C23.5492 8.46639 23.98 8.78385 23.98 8.78385L24.1416 7.67275C24.1416 7.67275 23.4954 7.4082 22.903 7.4082C21.6644 7.4082 20.4258 8.4664 20.4258 10.477C20.4258 11.7997 21.072 12.6992 22.3645 12.6992C22.7953 12.6992 23.3877 12.5404 23.3877 12.5404Z" fill="white"/>
<path d="M8.36279 8.36133C7.60886 8.36133 7.07034 8.57297 7.07034 8.57297L6.90878 9.47243C6.90878 9.47243 7.39345 9.26079 8.09353 9.26079C8.4705 9.26079 8.79361 9.3137 8.79361 9.63116C8.79361 9.8428 8.73976 9.89571 8.73976 9.89571C8.73976 9.89571 8.41665 9.89571 8.25509 9.89571C7.3396 9.89571 6.31641 10.2661 6.31641 11.483C6.31641 12.4354 6.96263 12.647 7.3396 12.647C8.09353 12.647 8.41665 12.1708 8.4705 12.1708L8.41665 12.5941H9.38599L9.81681 9.68407C9.81681 8.41424 8.73976 8.36133 8.36279 8.36133ZM8.5782 10.7423C8.5782 10.901 8.4705 11.7475 7.82427 11.7475C7.50116 11.7475 7.39345 11.483 7.39345 11.3243C7.39345 11.0597 7.55501 10.6893 8.36279 10.6893C8.52435 10.7423 8.5782 10.7423 8.5782 10.7423Z" fill="white"/>
<path d="M10.8402 12.6452C11.1094 12.6452 12.4557 12.6981 12.4557 11.2696C12.4557 9.94684 11.1633 10.2114 11.1633 9.68229C11.1633 9.41774 11.3787 9.31192 11.7557 9.31192C11.9172 9.31192 12.5096 9.36483 12.5096 9.36483L12.6711 8.41246C12.6711 8.41246 12.2942 8.30664 11.648 8.30664C10.8402 8.30664 10.0324 8.6241 10.0324 9.68229C10.0324 10.8992 11.3787 10.7934 11.3787 11.2696C11.3787 11.587 11.0017 11.6399 10.7325 11.6399C10.2478 11.6399 9.76312 11.4812 9.76312 11.4812L9.60156 12.4336C9.65541 12.5394 9.92468 12.6452 10.8402 12.6452Z" fill="white"/>
<path d="M32.3274 7.51367L32.112 8.94223C32.112 8.94223 31.6812 8.41313 31.0888 8.41313C30.1194 8.41313 29.2578 9.57714 29.2578 10.9528C29.2578 11.7993 29.6886 12.6988 30.6041 12.6988C31.2503 12.6988 31.6273 12.2755 31.6273 12.2755L31.5735 12.6459H32.6505L33.4583 7.56658L32.3274 7.51367ZM31.8427 10.3179C31.8427 10.8999 31.5735 11.6406 30.9811 11.6406C30.6041 11.6406 30.3887 11.3232 30.3887 10.7941C30.3887 9.94751 30.7657 9.41842 31.2503 9.41842C31.6273 9.41842 31.8427 9.68296 31.8427 10.3179Z" fill="white"/>
<path d="M2.49194 12.593L3.13817 8.7835L3.24588 12.593H3.99981L5.39997 8.7835L4.80759 12.593H5.93849L6.80013 7.51367H5.023L3.94596 10.6353L3.8921 7.51367H2.33039L1.46875 12.593H2.49194Z" fill="white"/>
<path d="M19.1887 12.5918C19.5118 10.8458 19.5656 9.41722 20.3196 9.68176C20.4273 8.99394 20.5888 8.72939 20.6965 8.46484C20.6965 8.46484 20.6427 8.46484 20.4811 8.46484C19.9964 8.46484 19.6195 9.09976 19.6195 9.09976L19.7272 8.51775H18.704L18.0039 12.6447H19.1887V12.5918Z" fill="white"/>
<path d="M25.8667 8.36133C25.1128 8.36133 24.5742 8.57297 24.5742 8.57297L24.4127 9.47243C24.4127 9.47243 24.8974 9.26079 25.5974 9.26079C25.9744 9.26079 26.2975 9.3137 26.2975 9.63116C26.2975 9.8428 26.2437 9.89571 26.2437 9.89571C26.2437 9.89571 25.9206 9.89571 25.759 9.89571C24.8435 9.89571 23.8203 10.2661 23.8203 11.483C23.8203 12.4354 24.4665 12.647 24.8435 12.647C25.5974 12.647 25.9206 12.1708 25.9744 12.1708L25.9206 12.5941H26.8899L27.3207 9.68407C27.3746 8.41424 26.2437 8.36133 25.8667 8.36133ZM26.136 10.7423C26.136 10.901 26.0283 11.7475 25.382 11.7475C25.0589 11.7475 24.9512 11.483 24.9512 11.3243C24.9512 11.0597 25.1128 10.6893 25.9206 10.6893C26.0821 10.7423 26.0821 10.7423 26.136 10.7423Z" fill="white"/>
<path d="M28.2316 12.5918C28.5547 10.8458 28.6086 9.41722 29.3625 9.68176C29.4702 8.99394 29.6318 8.72939 29.7395 8.46484C29.7395 8.46484 29.6856 8.46484 29.5241 8.46484C29.0394 8.46484 28.6624 9.09976 28.6624 9.09976L28.7701 8.51775H27.747L27.0469 12.6447H28.2316V12.5918Z" fill="white"/>
</svg>