<svg width="42" height="13" viewBox="0 0 42 13" fill="none" xmlns="http://www.w3.org/2000/svg">
<path d="M15.4883 12.3664L17.5453 0.998046H20.7595L18.7667 12.3664H15.4883Z" fill="#005DAC"/>
<path d="M30.4017 1.1244C29.7588 0.87177 28.7303 0.619141 27.4447 0.619141C24.2305 0.619141 21.9163 2.19807 21.9163 4.47174C21.9163 6.17698 23.5234 7.06119 24.8091 7.6296C26.0947 8.19802 26.4804 8.57696 26.4804 9.08222C26.4804 9.84011 25.4519 10.2191 24.5519 10.2191C23.2663 10.2191 22.5592 10.0296 21.4664 9.58748L21.0164 9.39801L20.5664 11.9875C21.3378 12.3032 22.752 12.619 24.2305 12.619C27.6375 12.619 29.8874 11.0401 29.8874 8.64012C29.8874 7.31382 29.0517 6.3033 27.1232 5.48225C25.9662 4.91384 25.259 4.59805 25.259 4.02964C25.259 3.52438 25.8376 3.01912 27.1232 3.01912C28.216 3.01912 28.9874 3.20859 29.566 3.46122L29.8874 3.58753L30.4017 1.1244Z" fill="#005DAC"/>
<path d="M35.93 0.998046C35.1587 0.998046 34.5801 1.0612 34.2587 1.81909L29.4375 12.3664H32.9088L33.5516 10.4716H37.6657L38.0514 12.3664H41.1369L38.4371 0.998046H35.93ZM34.4515 8.57692C34.6444 8.00851 35.7372 5.22959 35.7372 5.22959C35.7372 5.22959 35.9943 4.53486 36.1872 4.09276L36.38 5.16643C36.38 5.16643 37.0229 8.00851 37.1514 8.64008H34.4515V8.57692Z" fill="#005DAC"/>
<path d="M9.5712 8.95717L9.24978 7.31507C8.67124 5.42035 6.80704 3.33616 4.75 2.32565L7.64272 12.4308H11.114L16.3209 1.0625H12.8496L9.5712 8.95717Z" fill="#005DAC"/>
<path d="M9.21845 6.18153C9.22649 6.20521 9.23452 6.22889 9.25059 6.25258L9.13006 5.771L8.0935 0.94736C7.90066 0.189472 7.32211 -4.81852e-07 6.615 -4.81852e-07H0.636719L2.68573 0.615784C5.21686 1.56314 7.31408 3.09471 8.51938 4.87101C8.81668 5.3368 9.05774 5.81837 9.25059 6.31573L9.21845 6.18153Z" fill="#FBB120"/>
</svg>